<svg width="128" height="128" viewBox="0 0 128 128" xmlns="http://www.w3.org/2000/svg">
  <path d="M25.2 53.7c0 1-.3 1.6-.7 2-.5.4-1.2.6-2 .8l.3 9.6v9.6c0 .5 0 1-.2 1.2-.2.3-.6.4-1.2.4-.4 0-1 0-1.3-.2-.4 0-.8-.2-1-.5-.5-.2-.8-.5-1-.8-.2-.4-.3-.8-.3-1.4V61 57l-5.4.6-5.4.4c0 4.4 0 9 .3 13.3 0 1 0 1.8.2 2.7v2.6c0 .4 0 .7-.3 1-.2.2-.5.3-1 .3h-1l-1-.3c-.3 0-.7-.3-1-.5-.2 0-.5-.4-.6-.6l-.2-1v-2L2 71V58.2c-.3 0-.6 0-.8-.2-.2 0-.3-.3-.3-.6 0-.4.2-.8.4-1l.8-1V36.6c0-.5 0-.8.2-1 .2-.3.5-.4 1-.4.6 0 1.2 0 1.6.3.4.2.8.5 1 1 .2.2.3.7.4 1.2 0 .5 0 1 .2 1.6V47c0 2.5 0 5 .2 7.6l5.4-.6c1.7 0 3.5-.4 5.3-.8 0-2.2-.2-4.3-.4-6.5 0-2.2-.3-4.4-.6-6.6 0-1-.3-2-.6-3l-.3-3c0-.5 0-.7.4-.8l.8-.2c.5 0 1 0 1.5.3.5 0 1 .4 1.3.8l.6 1.8.5 3 .6 4c0 1.3.3 2.6.4 4 0 1.2.2 2.3.3 3.3l.2 2.3c.2 0 .5 0 .8-.2h.8c.5 0 .8.2 1 .5.3.3.4.7.4 1.2zm17.4 24c0 .3 0 .6-.4.8l-.8.2c-1 0-1.7-.3-2-.8-.6-.6-1-1.3-1-2.2-.2-.2-.2-.5-.3-.8v-1c0-.2 0-.4-.2-.5V73l-1 1.8c-.4.7-.8 1.3-1.3 1.8-.5.6-1 1-1.6 1.4-.7.3-1.3.5-2 .5-.8 0-1.4-.2-2-.5l-1-1.4c-.4-.6-.6-1.2-.7-1.8l-.2-2c0-1.4.3-3 .6-4.6l1-5c.6-1.6 1.2-3.2 2-4.7.6-1.5 1.3-3 2-4l.3-.3c0-.3.4-.6.7-1 .3-.4.6-.5 1-.5s.8 0 1 .5c.4.3.6.7.7 1l1.3.4.8.6.4.8v4l.2 1 .3 1.2.2 2 .3 2.4.2 2.3.3 2 .7 4.5v.6l.3.8v.8zm-7.2-18v-.3-.3c-.6 1-1 2.3-1.4 3.5L33 66c0 1.3-.3 2.6-.4 3.8l-.2 3.5v.6c.6-1 1-2 1.4-3l1-4c0-1.5.3-2.8.4-4l.2-3.4zm15.6-8c0 .4 0 .6-.2.8l-1 .2H49l-1.2-.3c-.4 0-.7-.2-1-.4-.4-.2-.5-.4-.5-.7v-.7c.2-.4.2-.8.3-1.3 0-.4.2-.8.3-1v-.7l.4-.3h1.1c.3 0 .6 0 1 .2l.7.4c.3 0 .4.2.5.3V51l.2.3v.4zm1 25c0 .4 0 .7-.2 1l-1 .2c-.3 0-.6 0-1-.2-.2 0-.5 0-.8-.2l-.8-.4-.5-.6s-.2-.5-.2-1.2l-.2-2.4v-3.2-3.6c-.2-1.2-.2-2.4-.2-3.5v-5.4c0-.2 0-.4.2-.6V56c.2 0 .3-.2.4-.3h.7c1 0 1.6 0 2 .6.4.5.7 1.2.8 2 .2 1.3.3 2.6.3 4 0 1 0 2.4.2 3.7v3.5l.3 3.3v.7c0 .2 0 .4.2.6V76.7zM68 55c0 .3 0 .6-.3.7l-.6.4c-.2.3-.4.3-.7.4H65c-.3 0-.5 0-.7-.2-.3 0-.5 0-.7-.2H62l-.8.5c-.3.2-.5.4-.6.7-.2.3-.3.6-.3 1s0 1 .3 1.4c.2.5.5 1 1 1.5.2.6.6 1 1 1.6l1.5 1.6 2 2 1.6 2 1.2 2.5c.3 1 .4 1.7.4 2.6 0 .8 0 1.5-.4 2.2-.2.6-.6 1-1 1.6-.5.5-1 .8-1.7 1-.6.3-1.3.4-2 .4h-1l-1.5-.4-1.7-.6-1.5-.6-1.2-.6-.3-.6c0-.3 0-.5.3-.8l.8-.7c.3 0 .7-.3 1-.5l1-.2 1 .2 1 .5 1 .6c.5.2 1 .2 1.4.2.3 0 .5 0 .5-.3v-.8c0-.7 0-1.4-.3-2-.2-.7-.5-1.4-1-2-.3-.6-.8-1.2-1.3-1.8l-1.5-2-1.5-1.6-1.4-1.8-1-2c-.2-.6-.3-1.2-.3-2 0-1 .2-1.7.6-2.4.3-.7.8-1.3 1.4-2 .7-.4 1.4-.8 2.2-1 .8-.3 1.6-.5 2.4-.5.3 0 .7 0 1.3.2.5 0 1 .2 1.6.4l1.4.7c.4.4.6.7.6 1zm20 21.3c0 .4 0 .7-.3 1l-1 .2H86c-.3 0-.6-.2-.8-.3-.5 0-.8-.2-1-.4-.3-.2-.5-.4-.6-.7l-.2-.7v-1-.2-.2c-.2-1-.3-2.4-.3-3.6v-3.7-1.8V63v-2-1.7-.3-.4l-1.4 2.6-1 3-.8 3-.6 3v.7l-.4 2.2V77c.2 0 .2.3.2.5 0 .5-.2 1-.4 1-.3.2-.6.3-1 .3h-.8l-1-.3-.7-.3c-.2-.2-.4-.3-.5-.6l-.4-2c0-1.3 0-2.7-.2-4.5l-.2-5.7-.3-6.6c0-2.3 0-4.6-.2-6.8v-6.3V41v-3-1.2c.2-.3.5-.5 1-.5.6 0 1.2 0 1.7.4.5.2.8.6 1 1.2l.2 1v5.4c.2 1.2.2 2.4.3 3.7v4l.2 3.6.2 4.6c.2-.7.5-1.3 1-2 .3-.8.7-1.4 1.2-2 .4-.6 1-1 1.5-1.4.7-.4 1.3-.6 2-.6 1 0 1.7.3 2.3.7.5.4 1 1 1 1.7.4.7.5 1.5.6 2.3v11.4c0 1.5.3 3 .5 4.5v1.3zm18.6 1.3c0 .4 0 .7-.4 1h-.8c-1 0-1.7-.2-2-.7-.6-.6-1-1.3-1-2.2-.2-.2-.2-.5-.3-.8v-1c0-.2 0-.4-.2-.5V73l-1 1.8c-.4.7-.8 1.3-1.3 1.8-.5.6-1 1-1.6 1.4-.7.3-1.3.5-2 .5-.8 0-1.4-.2-2-.5l-1-1.4c-.4-.6-.6-1.2-.7-1.8v-2c0-1.4 0-3 .3-4.6l1-5c.6-1.6 1.2-3.2 2-4.7.6-1.5 1.3-3 2-4l.3-.3c0-.3.4-.6.7-1 .3-.4.6-.5 1-.5s.8 0 1 .5c.4.3.6.7.7 1l1.3.4.8.6.4.8v4l.2 1 .3 1.2.2 2 .3 2.4.2 2.3.3 2 .7 4.5v.6l.3.8v.8zm-7.2-18v-.2-.3c-.6 1-1 2.3-1.4 3.5L97 66c0 1.3-.3 2.6-.4 3.8l-.2 3.5v.6c.6-1 1-2 1.4-3l1-4c0-1.5.3-2.8.4-4l.2-3.4zm16.8 18.2c0 .5-.2.8-.4 1l-1 .2h-1c-.5 0-.8-.2-1-.4-.4 0-.6-.3-1-.6l-.3-1c-.3-1.2-.5-2.4-.5-3.6v-7.7-5.3l.6-5.5v-.3-.2c0-.2 0-.4.2-.7 0-.3 0-.5.2-.8 0-.2.2-.4.4-.5l.7-.2c.4 0 .7 0 1 .2.3 0 .6.3.8.5.3.2.4.5.6.8l.2 1v2.4s0 .2-.2.3v.3l1-1.8 1.3-1.7c.5-.6 1-1 1.6-1.3.6-.4 1.3-.5 2-.5.6 0 1 0 1.5.3.4 0 .7.4 1 .7l.5 1.3v5.6c-.2.8-.2 1.5-.2 2.3v4.8l.2 2.7c0 .8.2 1.6.3 2.3 0 .6.2 1.2.3 1.5l.3 1 .4 1.4.2 1.2v1c0 .5 0 .8-.4 1H123c-.6 0-1 0-1.3-.3-.5-.3-.7-.8-1-1.3v-1.7l-.2-.8-.3-2-.3-2.7-.3-3v-3V62c0-.7 0-1.6.2-2.4v-1-1.2l-1 2.4c-.6 1-1 1.8-1.3 2.8l-1 2.8-.7 2.4-.2.7-.3 1V73l.3 1.7v.4l.2 1v1c.2.3.2.6.2.8z" fill="#fafafa" fill-rule="evenodd"/>
</svg>
